<svg xmlns="http://www.w3.org/2000/svg" width="680" height="64" viewBox="0 0 680 64" shape-rendering="crispEdges" xmlns:c2pa="http://c2pa.org/manifest"><metadata><c2pa:manifest>AAAWgmp1bWIAAAAeanVtZGMycGEAEQAQgAAAqgA4m3EDYzJwYQAAABZcanVtYgAAAEdqdW1kYzJtYQARABCAAACqADibcQN1cm46YzJwYTplYmQ2NDRiYS04ZWJjLTQwNGMtYjliZS0zMjg4YTBhYTlhMTYAAAADl2p1bWIAAAApanVtZGMyYXMAEQAQgAAAqgA4m3EDYzJwYS5hc3NlcnRpb25zAAAAALxqdW1iAAAARGp1bWRjYm9yABEAEIAAAKoAOJtxE2MycGEuaW5ncmVkaWVudC52MwAAAAAYYzJzaDV4I8DiZDeYppVMEOiqY7MAAABwY2JvcqNpZGM6Zm9ybWF0bWltYWdlL3N2Zyt4bWxqaW5zdGFuY2VJRHgseG1wOmlpZDozNDk2MWU0MC00ODY5LTQyNjEtYmY2Yi1hNzExNzU3YzhhZWVscmVsYXRpb25zaGlwaHBhcmVudE9mAAAB4mp1bWIAAABBanVtZGNib3IAEQAQgAAAqgA4m3ETYzJwYS5hY3Rpb25zLnYyAAAAABhjMnNo09TQ+SUBsHz2toslNXf3vwAAAZljYm9yomdhY3Rpb25zgqJmYWN0aW9ua2MycGEub3BlbmVkanBhcmFtZXRlcnOha2luZ3JlZGllbnRzgaJjdXJseC1zZWxmI2p1bWJmPWMycGEuYXNzZXJ0aW9ucy9jMnBhLmluZ3JlZGllbnQudjNkaGFzaFggGgWd3yAqq7Ddw3sBEvr0WpK8Yn3YHs92wXf/8m01y22kZmFjdGlvbngdY29tLmFudGhyb3BpYy5jbGF1ZGUucHJvdmlkZWRqcGFyYW1ldGVyc6F4H2NvbS5hbnRocm9waWMub3JpZ2luLWNvbmZpZGVuY2VndW5rbm93bmtkZXNjcmlwdGlvbnhmQ2xhdWRlIHByb3ZpZGVkIHRoaXMgZmlsZSBhdCB0aGUgcmVxdWVzdCBvZiBhIHVzZXIgYW5kIG1heSBoYXZlIGNyZWF0ZWQgb3IgbW9kaWZpZWQgdGhlIGZpbGUgY29udGVudHMubXNvZnR3YXJlQWdlbnShZG5hbWVmQ2xhdWRlcmFsbEFjdGlvbnNJbmNsdWRlZPUAAADIanVtYgAAAEBqdW1kY2JvcgARABCAAACqADibcRNjMnBhLmhhc2guZGF0YQAAAAAYYzJzaFbLJbbpAHbvVronoyB/bgYAAACAY2JvcqVjYWxnZnNoYTI1NmNwYWRNAAAAAAAAAAAAAAAAAGRoYXNoWCD6qLu0yzfdQtqVuhMhzeoLmDjSGP8OGLuHf+e4PcgixWRuYW1lbmp1bWJmIG1hbmlmZXN0amV4Y2x1c2lvbnOBomVzdGFydBixZmxlbmd0aBkeBAAAAj5qdW1iAAAAJ2p1bWRjMmNsABEAEIAAAKoAOJtxA2MycGEuY2xhaW0udjIAAAACD2Nib3KlY2FsZ2ZzaGEyNTZpc2lnbmF0dXJleE1zZWxmI2p1bWJmPS9jMnBhL3VybjpjMnBhOmViZDY0NGJhLThlYmMtNDA0Yy1iOWJlLTMyODhhMGFhOWExNi9jMnBhLnNpZ25hdHVyZWppbnN0YW5jZUlEeCx4bXA6aWlkOjMwNjc3NWYwLTBmZDMtNDI5OS05NjNlLWNiYzlkOWQzODlkMHJjcmVhdGVkX2Fzc2VydGlvbnODomN1cmx4LXNlbGYjanVtYmY9YzJwYS5hc3NlcnRpb25zL2MycGEuaW5ncmVkaWVudC52M2RoYXNoWCAaBZ3fICqrsN3DewES+vRakrxifdgez3bBd//ybTXLbaJjdXJseCpzZWxmI2p1bWJmPWMycGEuYXNzZXJ0aW9ucy9jMnBhLmFjdGlvbnMudjJkaGFzaFggCSsGVgCMCHQ1ZwrKyJWLq6EQU/DCFxf7ik5WL05fIv2iY3VybHgpc2VsZiNqdW1iZj1jMnBhLmFzc2VydGlvbnMvYzJwYS5oYXNoLmRhdGFkaGFzaFggriTeTKaqSArzc1bbpOSsztRTWdDJPPV8Yr9EoYi+Nr90Y2xhaW1fZ2VuZXJhdG9yX2luZm+jZG5hbWVvQW50aHJvcGljIEZpbGVzZ3ZlcnNpb25lMS4wLjBrc3BlY1ZlcnNpb25lMi40LjAAABA4anVtYgAAAChqdW1kYzJjcwARABCAAACqADibcQNjMnBhLnNpZ25hdHVyZQAAABAIY2JvctKEWQISogEmGCFZAgowggIGMIIBjaADAgECAhRA5aAK7sI50L64g/oGQgU9Z1UTADAKBggqhkjOPQQDAzBJMRcwFQYDVQQKEw5BbnRocm9waWMsIFBCQzEuMCwGA1UEAxMlQW50aHJvcGljIENvbnRlbnQgQ3JlZGVudGlhbHMgUm9vdCBDQTAeFw0yNjA4MDcxODQzNTZaFw0yODA4MDYxOTQzNTZaMEQxFzAVBgNVBAoTDkFudGhyb3BpYywgUEJDMSkwJwYDVQQDEyBBbnRocm9waWMgQ2xhdWRlIENvbnRlbnQgU2lnbmluZzBZMBMGByqGSM49AgEGCCqGSM49AwEHA0IABJh6CmvLUBgFFNU0vUKlOVtE6djd17L5SuwX0LemFisBM3dkd/3cyjxFA3Qo5S46fX0/ihY0VZ7mfb9KF703t5OjWDBWMA4GA1UdDwEB/wQEAwIHgDAVBgNVHSUEDjAMBgorBgEEAYPoXgIBMAwGA1UdEwEB/wQCMAAwHwYDVR0jBBgwFoAUzlHiBIFOZFsj+OPEz5o+nMHXXMIwCgYIKoZIzj0EAwMDZwAwZAIwMXMdFJ4BetLLVY7ORuE9noqbbAZOZn/aArXyTwFAZfKrPzxF2vPoJNf1+UCdg1XGAjBwX1zd9WGqYkqmL5SFqw1QySjr1zJfpJM9+1rdDwSPLMOPOjKuiXjoU/pUUeG9RwmhY3BhZFkNngAAAAAAAAAAAAAAAAAAAAAAAAAAAAAAAAAAAAAAAAAAAAAAAAAAAAAAAAAAAAAAAAAAAAAAAAAAAAAAAAAAAAAAAAAAAAAAAAAAAAAAAAAAAAAAAAAAAAAAAAAAAAAAAAAAAAAAAAAAAAAAAAAAAAAAAAAAAAAAAAAAAAAAAAAAAAAAAAAAAAAAAAAAAAAAAAAAAAAAAAAAAAAAAAAAAAAAAAAAAAAAAAAAAAAAAAAAAAAAAAAAAAAAAAAAAAAAAAAAAAAAAAAAAAAAAAAAAAAAAAAAAAAAAAAAAAAAAAAAAAAAAAAAAAAAAAAAAAAAAAAAAAAAAAAAAAAAAAAAAAAAAAAAAAAAAAAAAAAAAAAAAAAAAAAAAAAAAAAAAAAAAAAAAAAAAAAAAAAAAAAAAAAAAAAAAAAAAAAAAAAAAAAAAAAAAAAAAAAAAAAAAAAAAAAAAAAAAAAAAAAAAAAAAAAAAAAAAAAAAAAAAAAAAAAAAAAAAAAAAAAAAAAAAAAAAAAAAAAAAAAAAAAAAAAAAAAAAAAAAAAAAAAAAAAAAAAAAAAAAAAAAAAAAAAAAAAAAAAAAAAAAAAAAAAAAAAAAAAAAAAAAAAAAAAAAAAAAAAAAAAAAAAAAAAAAAAAAAAAAAAAAAAAAAAAAAAAAAAAAAAAAAAAAAAAAAAAAAAAAAAAAAAAAAAAAAAAAAAAAAAAAAAAAAAAAAAAAAAAAAAAAAAAAAAAAAAAAAAAAAAAAAAAAAAAAAAAAAAAAAAAAAAAAAAAAAAAAAAAAAAAAAAAAAAAAAAAAAAAAAAAAAAAAAAAAAAAAAAAAAAAAAAAAAAAAAAAAAAAAAAAAAAAAAAAAAAAAAAAAAAAAAAAAAAAAAAAAAAAAAAAAAAAAAAAAAAAAAAAAAAAAAAAAAAAAAAAAAAAAAAAAAAAAAAAAAAAAAAAAAAAAAAAAAAAAAAAAAAAAAAAAAAAAAAAAAAAAAAAAAAAAAAAAAAAAAAAAAAAAAAAAAAAAAAAAAAAAAAAAAAAAAAAAAAAAAAAAAAAAAAAAAAAAAAAAAAAAAAAAAAAAAAAAAAAAAAAAAAAAAAAAAAAAAAAAAAAAAAAAAAAAAAAAAAAAAAAAAAAAAAAAAAAAAAAAAAAAAAAAAAAAAAAAAAAAAAAAAAAAAAAAAAAAAAAAAAAAAAAAAAAAAAAAAAAAAAAAAAAAAAAAAAAAAAAAAAAAAAAAAAAAAAAAAAAAAAAAAAAAAAAAAAAAAAAAAAAAAAAAAAAAAAAAAAAAAAAAAAAAAAAAAAAAAAAAAAAAAAAAAAAAAAAAAAAAAAAAAAAAAAAAAAAAAAAAAAAAAAAAAAAAAAAAAAAAAAAAAAAAAAAAAAAAAAAAAAAAAAAAAAAAAAAAAAAAAAAAAAAAAAAAAAAAAAAAAAAAAAAAAAAAAAAAAAAAAAAAAAAAAAAAAAAAAAAAAAAAAAAAAAAAAAAAAAAAAAAAAAAAAAAAAAAAAAAAAAAAAAAAAAAAAAAAAAAAAAAAAAAAAAAAAAAAAAAAAAAAAAAAAAAAAAAAAAAAAAAAAAAAAAAAAAAAAAAAAAAAAAAAAAAAAAAAAAAAAAAAAAAAAAAAAAAAAAAAAAAAAAAAAAAAAAAAAAAAAAAAAAAAAAAAAAAAAAAAAAAAAAAAAAAAAAAAAAAAAAAAAAAAAAAAAAAAAAAAAAAAAAAAAAAAAAAAAAAAAAAAAAAAAAAAAAAAAAAAAAAAAAAAAAAAAAAAAAAAAAAAAAAAAAAAAAAAAAAAAAAAAAAAAAAAAAAAAAAAAAAAAAAAAAAAAAAAAAAAAAAAAAAAAAAAAAAAAAAAAAAAAAAAAAAAAAAAAAAAAAAAAAAAAAAAAAAAAAAAAAAAAAAAAAAAAAAAAAAAAAAAAAAAAAAAAAAAAAAAAAAAAAAAAAAAAAAAAAAAAAAAAAAAAAAAAAAAAAAAAAAAAAAAAAAAAAAAAAAAAAAAAAAAAAAAAAAAAAAAAAAAAAAAAAAAAAAAAAAAAAAAAAAAAAAAAAAAAAAAAAAAAAAAAAAAAAAAAAAAAAAAAAAAAAAAAAAAAAAAAAAAAAAAAAAAAAAAAAAAAAAAAAAAAAAAAAAAAAAAAAAAAAAAAAAAAAAAAAAAAAAAAAAAAAAAAAAAAAAAAAAAAAAAAAAAAAAAAAAAAAAAAAAAAAAAAAAAAAAAAAAAAAAAAAAAAAAAAAAAAAAAAAAAAAAAAAAAAAAAAAAAAAAAAAAAAAAAAAAAAAAAAAAAAAAAAAAAAAAAAAAAAAAAAAAAAAAAAAAAAAAAAAAAAAAAAAAAAAAAAAAAAAAAAAAAAAAAAAAAAAAAAAAAAAAAAAAAAAAAAAAAAAAAAAAAAAAAAAAAAAAAAAAAAAAAAAAAAAAAAAAAAAAAAAAAAAAAAAAAAAAAAAAAAAAAAAAAAAAAAAAAAAAAAAAAAAAAAAAAAAAAAAAAAAAAAAAAAAAAAAAAAAAAAAAAAAAAAAAAAAAAAAAAAAAAAAAAAAAAAAAAAAAAAAAAAAAAAAAAAAAAAAAAAAAAAAAAAAAAAAAAAAAAAAAAAAAAAAAAAAAAAAAAAAAAAAAAAAAAAAAAAAAAAAAAAAAAAAAAAAAAAAAAAAAAAAAAAAAAAAAAAAAAAAAAAAAAAAAAAAAAAAAAAAAAAAAAAAAAAAAAAAAAAAAAAAAAAAAAAAAAAAAAAAAAAAAAAAAAAAAAAAAAAAAAAAAAAAAAAAAAAAAAAAAAAAAAAAAAAAAAAAAAAAAAAAAAAAAAAAAAAAAAAAAAAAAAAAAAAAAAAAAAAAAAAAAAAAAAAAAAAAAAAAAAAAAAAAAAAAAAAAAAAAAAAAAAAAAAAAAAAAAAAAAAAAAAAAAAAAAAAAAAAAAAAAAAAAAAAAAAAAAAAAAAAAAAAAAAAAAAAAAAAAAAAAAAAAAAAAAAAAAAAAAAAAAAAAAAAAAAAAAAAAAAAAAAAAAAAAAAAAAAAAAAAAAAAAAAAAAAAAAAAAAAAAAAAAAAAAAAAAAAAAAAAAAAAAAAAAAAAAAAAAAAAAAAAAAAAAAAAAAAAAAAAAAAAAAAAAAAAAAAAAAAAAAAAAAAAAAAAAAAAAAAAAAAAAAAAAAAAAAAAAAAAAAAAAAAAAAAAAAAAAAAAAAAAAAAAAAAAAAAAAAAAAAAAAAAAAAAAAAAAAAAAAAAAAAAAAAAAAAAAAAAAAAAAAAAAAAAAAAAAAAAAAAAAAAAAAAAAAAAAAAAAAAAAAAAAAAAAAAAAAAAAAAAAAAAAAAAAAAAAAAAAAAAAAAAAAAAAAAAAAAAAAAAAAAAAAAAAAAAAAAAAAAAAAAAAAAAAAAAAAAAAAAAAAAAAAAAAAAAAAAAAAAAAAAAAAAAAAAAAAAAAAAAAAAAAAAAAAAAAAAAAAAAAAAAAAAAAAAAAAAAAAAAAAAAAAAAAAAAAAAAAAAAAAAAAAAAAAAAAAAAAAAAAAAAAAAAAAAAAAAAAAAAAAAAAAAAAAAAAAAAAAAAAAAAAAAAAAAAAAAAAAAAAAAAAAAAAAAAAAAAAAAAAAAAAAAAAAAAAAAAAAAAAAAAAAAAAAAAAAAAAAAAAAAAAAAAAAAAAAAAAAAAAAAAAAAAAAAAAAAAAAAAAAAAAAAAAAAAAAAAAAAAAAAAAAAAAAAAAAAAAAAAAAAAAAAAAAAAAAAAAAAAAAAAAAAAAAAAAAAAAAAAAAAAAAAAAAAAAAAAAAAAAAAAAAAAAAAAAAAAAAAAAAAAAAAAAAAAAAAAAAAAAAAAAAAAAAAAAAAAAAAAAAAAAAAAAAAAAAAAAAAAAAAAAAAAAAAAAAAAAAAAAAAAAAAAAAAAAAAAAAAAAAAAAAAAAAAAAAAAAAAAAAAAAAAAAAAAAAAAAAAAAAAAAAAAAAAAAAAAAAAAAAAAAAAAAAAAAAAAAAAAAAAAAAAAAAAAAAAAAAAAAAAAAAAAAAAAAAAAAAAAAAAAAAAAAAAAAAAAAAAAAAAAAAAAAAAAAAAAAAAAAAAAAAAAAAAAAAAAAAAAAAAAAAAAAAAAAAAAAAAAAAAAAAAAAAAAAAAAAAAAAAAAAAAAAAAAAAAAAAAAAAAAAAAAAAAAAAAAAAAAAAAAAAAAAAAAAAAAAAAAAAAAAAAAAAAAAAAAAAAAAAAAAAAAAAAAAAAAAAAAAAAAAAAAAAAAAAAAAAAAAAAAAAAAAAAAAAAAAAAAAAAAAAAAAAAAAAAAAAAAAAAAAAAAAAAAAAAAAAAAAAAAAAAAAAAAAAAAAAAAAAAAAAAAAAAAAAAAAAAAAAAAAAAAAAAAAAAAAAAAAAAAAAAAAAAAAAAAAAAAAAAAAAAAAAAAAAAAAAAAAAAAAAAAAAAAAAAAAAAAAAAAAAAAAAAAAAAAAAAAAAAAAAAAAAAAAAAAAAAAAAAAAAAAAAAAAAAAAAAAAAAAAAAAAAAAAAAAAAAAAAAAAAAAAAAAAAAAAAAAAAAAAAAAAAAAAAAAAAAAAAAAAAAAAAAAAAAAAAAAAAAAAAAAAAAAAAAAAAAAAAAAAAAAAAAAAAAAAAAAAAAAAAAAAAAAAAAAAAAAAAAAAAAAAAAAAAAAAAAAAAAAAAAAAAAAAAAAAAAAAAAAAAAAAAAAAAAAAAAAAAAAAAAAAAAAAAAAAAAAPZYQDXo9sBD08S48cbklU6wmEac9TedguNyaZelDTLukNL8xCM8z2wV1H6UImamEh0iLc8vISt2acvxCse0rDJA70U=</c2pa:manifest></metadata><rect x="8" y="0" width="664" height="64" fill="#0a0d18"/><rect x="4" y="4" width="672" height="56" fill="#0a0d18"/><rect x="0" y="8" width="680" height="48" fill="#0a0d18"/><rect x="8" y="0" width="664" height="2" fill="#2b3556"/><rect x="8" y="62" width="664" height="2" fill="#2b3556"/><rect x="0" y="8" width="2" height="48" fill="#2b3556"/><rect x="678" y="8" width="2" height="48" fill="#2b3556"/><rect x="4" y="2" width="4" height="2" fill="#2b3556"/><rect x="2" y="4" width="2" height="4" fill="#2b3556"/><rect x="672" y="2" width="4" height="2" fill="#2b3556"/><rect x="676" y="4" width="2" height="4" fill="#2b3556"/><rect x="4" y="60" width="4" height="2" fill="#2b3556"/><rect x="2" y="56" width="2" height="4" fill="#2b3556"/><rect x="672" y="60" width="4" height="2" fill="#2b3556"/><rect x="676" y="56" width="2" height="4" fill="#2b3556"/><rect x="12" y="6" width="656" height="2" fill="#5a6a99" fill-opacity="0.55"/><rect x="12" y="56" width="656" height="2" fill="#5a6a99" fill-opacity="0.55"/><rect x="6" y="6" width="4" height="4" fill="#7fdcb5"/><rect x="670" y="6" width="4" height="4" fill="#7fdcb5"/><rect x="6" y="54" width="4" height="4" fill="#7fdcb5"/><rect x="670" y="54" width="4" height="4" fill="#7fdcb5"/><rect x="18" y="14" width="54" height="36" fill="#7fdcb5" fill-opacity="0.07"/><rect x="24" y="5" width="42" height="54" fill="#7fdcb5" fill-opacity="0.08"/><rect x="30" y="8" width="3" height="3" fill="#e9eefb"/><rect x="57" y="8" width="3" height="3" fill="#e9eefb"/><rect x="30" y="11" width="6" height="3" fill="#e9eefb"/><rect x="54" y="11" width="6" height="3" fill="#e9eefb"/><rect x="30" y="14" width="6" height="3" fill="#e9eefb"/><rect x="54" y="14" width="6" height="3" fill="#e9eefb"/><rect x="33" y="17" width="6" height="3" fill="#e9eefb"/><rect x="51" y="17" width="6" height="3" fill="#e9eefb"/><rect x="33" y="20" width="24" height="3" fill="#e9eefb"/><rect x="30" y="23" width="30" height="3" fill="#e9eefb"/><rect x="27" y="26" width="33" height="3" fill="#e9eefb"/><rect x="60" y="26" width="3" height="3" fill="#9aa8cc"/><rect x="27" y="29" width="6" height="3" fill="#e9eefb"/><rect x="33" y="29" width="6" height="3" fill="#05070d"/><rect x="39" y="29" width="12" height="3" fill="#e9eefb"/><rect x="51" y="29" width="6" height="3" fill="#05070d"/><rect x="57" y="29" width="3" height="3" fill="#e9eefb"/><rect x="60" y="29" width="3" height="3" fill="#9aa8cc"/><rect x="27" y="32" width="6" height="3" fill="#e9eefb"/><rect x="33" y="32" width="9" height="3" fill="#05070d"/><rect x="42" y="32" width="6" height="3" fill="#e9eefb"/><rect x="48" y="32" width="9" height="3" fill="#05070d"/><rect x="57" y="32" width="3" height="3" fill="#e9eefb"/><rect x="60" y="32" width="3" height="3" fill="#9aa8cc"/><rect x="27" y="35" width="6" height="3" fill="#e9eefb"/><rect x="33" y="35" width="9" height="3" fill="#05070d"/><rect x="42" y="35" width="6" height="3" fill="#e9eefb"/><rect x="48" y="35" width="9" height="3" fill="#05070d"/><rect x="57" y="35" width="3" height="3" fill="#e9eefb"/><rect x="60" y="35" width="3" height="3" fill="#9aa8cc"/><rect x="27" y="38" width="9" height="3" fill="#e9eefb"/><rect x="36" y="38" width="6" height="3" fill="#05070d"/><rect x="42" y="38" width="9" height="3" fill="#e9eefb"/><rect x="51" y="38" width="6" height="3" fill="#05070d"/><rect x="57" y="38" width="3" height="3" fill="#e9eefb"/><rect x="60" y="38" width="3" height="3" fill="#9aa8cc"/><rect x="27" y="41" width="33" height="3" fill="#e9eefb"/><rect x="60" y="41" width="3" height="3" fill="#9aa8cc"/><rect x="30" y="44" width="24" height="3" fill="#e9eefb"/><rect x="54" y="44" width="6" height="3" fill="#9aa8cc"/><rect x="33" y="47" width="21" height="3" fill="#e9eefb"/><rect x="54" y="47" width="3" height="3" fill="#9aa8cc"/><rect x="36" y="50" width="15" height="3" fill="#e9eefb"/><rect x="51" y="50" width="3" height="3" fill="#9aa8cc"/><rect x="39" y="53" width="9" height="3" fill="#e9eefb"/><rect x="48" y="53" width="3" height="3" fill="#9aa8cc"/><rect x="33" y="32" width="3" height="3" fill="#7fdcb5"/><rect x="54" y="32" width="3" height="3" fill="#7fdcb5"/><rect x="78" y="16" width="2" height="32" fill="#5a6a99" fill-opacity="0.6"/><rect x="78" y="24" width="2" height="16" fill="#7fdcb5"/><rect x="97" y="21" width="16" height="4" fill="#7fdcb5" fill-opacity="0.35"/><rect x="97" y="25" width="4" height="4" fill="#7fdcb5" fill-opacity="0.35"/><rect x="113" y="25" width="4" height="4" fill="#7fdcb5" fill-opacity="0.35"/><rect x="97" y="29" width="4" height="4" fill="#7fdcb5" fill-opacity="0.35"/><rect x="113" y="29" width="4" height="4" fill="#7fdcb5" fill-opacity="0.35"/><rect x="97" y="33" width="4" height="4" fill="#7fdcb5" fill-opacity="0.35"/><rect x="113" y="33" width="4" height="4" fill="#7fdcb5" fill-opacity="0.35"/><rect x="97" y="37" width="4" height="4" fill="#7fdcb5" fill-opacity="0.35"/><rect x="113" y="37" width="4" height="4" fill="#7fdcb5" fill-opacity="0.35"/><rect x="97" y="41" width="4" height="4" fill="#7fdcb5" fill-opacity="0.35"/><rect x="113" y="41" width="4" height="4" fill="#7fdcb5" fill-opacity="0.35"/><rect x="97" y="45" width="16" height="4" fill="#7fdcb5" fill-opacity="0.35"/><rect x="125" y="21" width="12" height="4" fill="#7fdcb5" fill-opacity="0.35"/><rect x="121" y="25" width="4" height="4" fill="#7fdcb5" fill-opacity="0.35"/><rect x="137" y="25" width="4" height="4" fill="#7fdcb5" fill-opacity="0.35"/><rect x="121" y="29" width="4" height="4" fill="#7fdcb5" fill-opacity="0.35"/><rect x="137" y="29" width="4" height="4" fill="#7fdcb5" fill-opacity="0.35"/><rect x="121" y="33" width="20" height="4" fill="#7fdcb5" fill-opacity="0.35"/><rect x="121" y="37" width="4" height="4" fill="#7fdcb5" fill-opacity="0.35"/><rect x="137" y="37" width="4" height="4" fill="#7fdcb5" fill-opacity="0.35"/><rect x="121" y="41" width="4" height="4" fill="#7fdcb5" fill-opacity="0.35"/><rect x="137" y="41" width="4" height="4" fill="#7fdcb5" fill-opacity="0.35"/><rect x="121" y="45" width="4" height="4" fill="#7fdcb5" fill-opacity="0.35"/><rect x="137" y="45" width="4" height="4" fill="#7fdcb5" fill-opacity="0.35"/><rect x="145" y="21" width="20" height="4" fill="#7fdcb5" fill-opacity="0.35"/><rect x="153" y="25" width="4" height="4" fill="#7fdcb5" fill-opacity="0.35"/><rect x="153" y="29" width="4" height="4" fill="#7fdcb5" fill-opacity="0.35"/><rect x="153" y="33" width="4" height="4" fill="#7fdcb5" fill-opacity="0.35"/><rect x="153" y="37" width="4" height="4" fill="#7fdcb5" fill-opacity="0.35"/><rect x="153" y="41" width="4" height="4" fill="#7fdcb5" fill-opacity="0.35"/><rect x="153" y="45" width="4" height="4" fill="#7fdcb5" fill-opacity="0.35"/><rect x="173" y="21" width="12" height="4" fill="#7fdcb5" fill-opacity="0.35"/><rect x="169" y="25" width="4" height="4" fill="#7fdcb5" fill-opacity="0.35"/><rect x="185" y="25" width="4" height="4" fill="#7fdcb5" fill-opacity="0.35"/><rect x="169" y="29" width="4" height="4" fill="#7fdcb5" fill-opacity="0.35"/><rect x="185" y="29" width="4" height="4" fill="#7fdcb5" fill-opacity="0.35"/><rect x="169" y="33" width="20" height="4" fill="#7fdcb5" fill-opacity="0.35"/><rect x="169" y="37" width="4" height="4" fill="#7fdcb5" fill-opacity="0.35"/><rect x="185" y="37" width="4" height="4" fill="#7fdcb5" fill-opacity="0.35"/><rect x="169" y="41" width="4" height="4" fill="#7fdcb5" fill-opacity="0.35"/><rect x="185" y="41" width="4" height="4" fill="#7fdcb5" fill-opacity="0.35"/><rect x="169" y="45" width="4" height="4" fill="#7fdcb5" fill-opacity="0.35"/><rect x="185" y="45" width="4" height="4" fill="#7fdcb5" fill-opacity="0.35"/><rect x="94" y="18" width="16" height="4" fill="#e9eefb"/><rect x="94" y="22" width="4" height="4" fill="#e9eefb"/><rect x="110" y="22" width="4" height="4" fill="#e9eefb"/><rect x="94" y="26" width="4" height="4" fill="#e9eefb"/><rect x="110" y="26" width="4" height="4" fill="#e9eefb"/><rect x="94" y="30" width="4" height="4" fill="#e9eefb"/><rect x="110" y="30" width="4" height="4" fill="#e9eefb"/><rect x="94" y="34" width="4" height="4" fill="#e9eefb"/><rect x="110" y="34" width="4" height="4" fill="#e9eefb"/><rect x="94" y="38" width="4" height="4" fill="#e9eefb"/><rect x="110" y="38" width="4" height="4" fill="#e9eefb"/><rect x="94" y="42" width="16" height="4" fill="#e9eefb"/><rect x="122" y="18" width="12" height="4" fill="#e9eefb"/><rect x="118" y="22" width="4" height="4" fill="#e9eefb"/><rect x="134" y="22" width="4" height="4" fill="#e9eefb"/><rect x="118" y="26" width="4" height="4" fill="#e9eefb"/><rect x="134" y="26" width="4" height="4" fill="#e9eefb"/><rect x="118" y="30" width="20" height="4" fill="#e9eefb"/><rect x="118" y="34" width="4" height="4" fill="#e9eefb"/><rect x="134" y="34" width="4" height="4" fill="#e9eefb"/><rect x="118" y="38" width="4" height="4" fill="#e9eefb"/><rect x="134" y="38" width="4" height="4" fill="#e9eefb"/><rect x="118" y="42" width="4" height="4" fill="#e9eefb"/><rect x="134" y="42" width="4" height="4" fill="#e9eefb"/><rect x="142" y="18" width="20" height="4" fill="#e9eefb"/><rect x="150" y="22" width="4" height="4" fill="#e9eefb"/><rect x="150" y="26" width="4" height="4" fill="#e9eefb"/><rect x="150" y="30" width="4" height="4" fill="#e9eefb"/><rect x="150" y="34" width="4" height="4" fill="#e9eefb"/><rect x="150" y="38" width="4" height="4" fill="#e9eefb"/><rect x="150" y="42" width="4" height="4" fill="#e9eefb"/><rect x="170" y="18" width="12" height="4" fill="#e9eefb"/><rect x="166" y="22" width="4" height="4" fill="#e9eefb"/><rect x="182" y="22" width="4" height="4" fill="#e9eefb"/><rect x="166" y="26" width="4" height="4" fill="#e9eefb"/><rect x="182" y="26" width="4" height="4" fill="#e9eefb"/><rect x="166" y="30" width="20" height="4" fill="#e9eefb"/><rect x="166" y="34" width="4" height="4" fill="#e9eefb"/><rect x="182" y="34" width="4" height="4" fill="#e9eefb"/><rect x="166" y="38" width="4" height="4" fill="#e9eefb"/><rect x="182" y="38" width="4" height="4" fill="#e9eefb"/><rect x="166" y="42" width="4" height="4" fill="#e9eefb"/><rect x="182" y="42" width="4" height="4" fill="#e9eefb"/><rect x="438" y="25" width="10" height="2" fill="#6f80aa"/><rect x="442" y="27" width="2" height="2" fill="#6f80aa"/><rect x="442" y="29" width="2" height="2" fill="#6f80aa"/><rect x="442" y="31" width="2" height="2" fill="#6f80aa"/><rect x="442" y="33" width="2" height="2" fill="#6f80aa"/><rect x="442" y="35" width="2" height="2" fill="#6f80aa"/><rect x="442" y="37" width="2" height="2" fill="#6f80aa"/><rect x="450" y="25" width="2" height="2" fill="#6f80aa"/><rect x="458" y="25" width="2" height="2" fill="#6f80aa"/><rect x="450" y="27" width="2" height="2" fill="#6f80aa"/><rect x="458" y="27" width="2" height="2" fill="#6f80aa"/><rect x="450" y="29" width="2" height="2" fill="#6f80aa"/><rect x="458" y="29" width="2" height="2" fill="#6f80aa"/><rect x="450" y="31" width="10" height="2" fill="#6f80aa"/><rect x="450" y="33" width="2" height="2" fill="#6f80aa"/><rect x="458" y="33" width="2" height="2" fill="#6f80aa"/><rect x="450" y="35" width="2" height="2" fill="#6f80aa"/><rect x="458" y="35" width="2" height="2" fill="#6f80aa"/><rect x="450" y="37" width="2" height="2" fill="#6f80aa"/><rect x="458" y="37" width="2" height="2" fill="#6f80aa"/><rect x="462" y="25" width="10" height="2" fill="#6f80aa"/><rect x="462" y="27" width="2" height="2" fill="#6f80aa"/><rect x="462" y="29" width="2" height="2" fill="#6f80aa"/><rect x="462" y="31" width="8" height="2" fill="#6f80aa"/><rect x="462" y="33" width="2" height="2" fill="#6f80aa"/><rect x="462" y="35" width="2" height="2" fill="#6f80aa"/><rect x="462" y="37" width="10" height="2" fill="#6f80aa"/><rect x="488" y="25" width="6" height="2" fill="#6f80aa"/><rect x="486" y="27" width="2" height="2" fill="#6f80aa"/><rect x="494" y="27" width="2" height="2" fill="#6f80aa"/><rect x="486" y="29" width="2" height="2" fill="#6f80aa"/><rect x="494" y="29" width="2" height="2" fill="#6f80aa"/><rect x="486" y="31" width="10" height="2" fill="#6f80aa"/><rect x="486" y="33" width="2" height="2" fill="#6f80aa"/><rect x="494" y="33" width="2" height="2" fill="#6f80aa"/><rect x="486" y="35" width="2" height="2" fill="#6f80aa"/><rect x="494" y="35" width="2" height="2" fill="#6f80aa"/><rect x="486" y="37" width="2" height="2" fill="#6f80aa"/><rect x="494" y="37" width="2" height="2" fill="#6f80aa"/><rect x="498" y="25" width="8" height="2" fill="#6f80aa"/><rect x="498" y="27" width="2" height="2" fill="#6f80aa"/><rect x="506" y="27" width="2" height="2" fill="#6f80aa"/><rect x="498" y="29" width="2" height="2" fill="#6f80aa"/><rect x="506" y="29" width="2" height="2" fill="#6f80aa"/><rect x="498" y="31" width="8" height="2" fill="#6f80aa"/><rect x="498" y="33" width="2" height="2" fill="#6f80aa"/><rect x="502" y="33" width="2" height="2" fill="#6f80aa"/><rect x="498" y="35" width="2" height="2" fill="#6f80aa"/><rect x="504" y="35" width="2" height="2" fill="#6f80aa"/><rect x="498" y="37" width="2" height="2" fill="#6f80aa"/><rect x="506" y="37" width="2" height="2" fill="#6f80aa"/><rect x="512" y="25" width="8" height="2" fill="#6f80aa"/><rect x="510" y="27" width="2" height="2" fill="#6f80aa"/><rect x="510" y="29" width="2" height="2" fill="#6f80aa"/><rect x="510" y="31" width="2" height="2" fill="#6f80aa"/><rect x="510" y="33" width="2" height="2" fill="#6f80aa"/><rect x="510" y="35" width="2" height="2" fill="#6f80aa"/><rect x="512" y="37" width="8" height="2" fill="#6f80aa"/><rect x="522" y="25" width="2" height="2" fill="#6f80aa"/><rect x="530" y="25" width="2" height="2" fill="#6f80aa"/><rect x="522" y="27" width="2" height="2" fill="#6f80aa"/><rect x="530" y="27" width="2" height="2" fill="#6f80aa"/><rect x="522" y="29" width="2" height="2" fill="#6f80aa"/><rect x="530" y="29" width="2" height="2" fill="#6f80aa"/><rect x="522" y="31" width="10" height="2" fill="#6f80aa"/><rect x="522" y="33" width="2" height="2" fill="#6f80aa"/><rect x="530" y="33" width="2" height="2" fill="#6f80aa"/><rect x="522" y="35" width="2" height="2" fill="#6f80aa"/><rect x="530" y="35" width="2" height="2" fill="#6f80aa"/><rect x="522" y="37" width="2" height="2" fill="#6f80aa"/><rect x="530" y="37" width="2" height="2" fill="#6f80aa"/><rect x="534" y="25" width="10" height="2" fill="#6f80aa"/><rect x="538" y="27" width="2" height="2" fill="#6f80aa"/><rect x="538" y="29" width="2" height="2" fill="#6f80aa"/><rect x="538" y="31" width="2" height="2" fill="#6f80aa"/><rect x="538" y="33" width="2" height="2" fill="#6f80aa"/><rect x="538" y="35" width="2" height="2" fill="#6f80aa"/><rect x="534" y="37" width="10" height="2" fill="#6f80aa"/><rect x="546" y="25" width="2" height="2" fill="#6f80aa"/><rect x="554" y="25" width="2" height="2" fill="#6f80aa"/><rect x="546" y="27" width="2" height="2" fill="#6f80aa"/><rect x="554" y="27" width="2" height="2" fill="#6f80aa"/><rect x="546" y="29" width="2" height="2" fill="#6f80aa"/><rect x="554" y="29" width="2" height="2" fill="#6f80aa"/><rect x="546" y="31" width="2" height="2" fill="#6f80aa"/><rect x="554" y="31" width="2" height="2" fill="#6f80aa"/><rect x="546" y="33" width="2" height="2" fill="#6f80aa"/><rect x="554" y="33" width="2" height="2" fill="#6f80aa"/><rect x="548" y="35" width="2" height="2" fill="#6f80aa"/><rect x="552" y="35" width="2" height="2" fill="#6f80aa"/><rect x="550" y="37" width="2" height="2" fill="#6f80aa"/><rect x="558" y="25" width="10" height="2" fill="#6f80aa"/><rect x="558" y="27" width="2" height="2" fill="#6f80aa"/><rect x="558" y="29" width="2" height="2" fill="#6f80aa"/><rect x="558" y="31" width="8" height="2" fill="#6f80aa"/><rect x="558" y="33" width="2" height="2" fill="#6f80aa"/><rect x="558" y="35" width="2" height="2" fill="#6f80aa"/><rect x="558" y="37" width="10" height="2" fill="#6f80aa"/><rect x="572" y="25" width="8" height="2" fill="#6f80aa"/><rect x="570" y="27" width="2" height="2" fill="#6f80aa"/><rect x="570" y="29" width="2" height="2" fill="#6f80aa"/><rect x="572" y="31" width="6" height="2" fill="#6f80aa"/><rect x="578" y="33" width="2" height="2" fill="#6f80aa"/><rect x="578" y="35" width="2" height="2" fill="#6f80aa"/><rect x="570" y="37" width="8" height="2" fill="#6f80aa"/><rect x="594" y="25" width="8" height="2" fill="#6f80aa"/><rect x="594" y="27" width="2" height="2" fill="#6f80aa"/><rect x="602" y="27" width="2" height="2" fill="#6f80aa"/><rect x="594" y="29" width="2" height="2" fill="#6f80aa"/><rect x="602" y="29" width="2" height="2" fill="#6f80aa"/><rect x="594" y="31" width="8" height="2" fill="#6f80aa"/><rect x="594" y="33" width="2" height="2" fill="#6f80aa"/><rect x="602" y="33" width="2" height="2" fill="#6f80aa"/><rect x="594" y="35" width="2" height="2" fill="#6f80aa"/><rect x="602" y="35" width="2" height="2" fill="#6f80aa"/><rect x="594" y="37" width="8" height="2" fill="#6f80aa"/><rect x="606" y="25" width="10" height="2" fill="#6f80aa"/><rect x="606" y="27" width="2" height="2" fill="#6f80aa"/><rect x="606" y="29" width="2" height="2" fill="#6f80aa"/><rect x="606" y="31" width="8" height="2" fill="#6f80aa"/><rect x="606" y="33" width="2" height="2" fill="#6f80aa"/><rect x="606" y="35" width="2" height="2" fill="#6f80aa"/><rect x="606" y="37" width="10" height="2" fill="#6f80aa"/><rect x="618" y="25" width="2" height="2" fill="#6f80aa"/><rect x="618" y="27" width="2" height="2" fill="#6f80aa"/><rect x="618" y="29" width="2" height="2" fill="#6f80aa"/><rect x="618" y="31" width="2" height="2" fill="#6f80aa"/><rect x="618" y="33" width="2" height="2" fill="#6f80aa"/><rect x="618" y="35" width="2" height="2" fill="#6f80aa"/><rect x="618" y="37" width="10" height="2" fill="#6f80aa"/><rect x="632" y="25" width="6" height="2" fill="#6f80aa"/><rect x="630" y="27" width="2" height="2" fill="#6f80aa"/><rect x="638" y="27" width="2" height="2" fill="#6f80aa"/><rect x="630" y="29" width="2" height="2" fill="#6f80aa"/><rect x="638" y="29" width="2" height="2" fill="#6f80aa"/><rect x="630" y="31" width="2" height="2" fill="#6f80aa"/><rect x="638" y="31" width="2" height="2" fill="#6f80aa"/><rect x="630" y="33" width="2" height="2" fill="#6f80aa"/><rect x="638" y="33" width="2" height="2" fill="#6f80aa"/><rect x="630" y="35" width="2" height="2" fill="#6f80aa"/><rect x="638" y="35" width="2" height="2" fill="#6f80aa"/><rect x="632" y="37" width="6" height="2" fill="#6f80aa"/><rect x="642" y="25" width="2" height="2" fill="#6f80aa"/><rect x="650" y="25" width="2" height="2" fill="#6f80aa"/><rect x="642" y="27" width="2" height="2" fill="#6f80aa"/><rect x="650" y="27" width="2" height="2" fill="#6f80aa"/><rect x="642" y="29" width="2" height="2" fill="#6f80aa"/><rect x="650" y="29" width="2" height="2" fill="#6f80aa"/><rect x="642" y="31" width="2" height="2" fill="#6f80aa"/><rect x="646" y="31" width="2" height="2" fill="#6f80aa"/><rect x="650" y="31" width="2" height="2" fill="#6f80aa"/><rect x="642" y="33" width="2" height="2" fill="#6f80aa"/><rect x="646" y="33" width="2" height="2" fill="#6f80aa"/><rect x="650" y="33" width="2" height="2" fill="#6f80aa"/><rect x="642" y="35" width="4" height="2" fill="#6f80aa"/><rect x="648" y="35" width="4" height="2" fill="#6f80aa"/><rect x="642" y="37" width="2" height="2" fill="#6f80aa"/><rect x="650" y="37" width="2" height="2" fill="#6f80aa"/><rect x="208" y="14" width="4" height="4" fill="#7fdcb5" fill-opacity="0.9"/><rect x="226" y="42" width="2" height="2" fill="#7fdcb5" fill-opacity="0.6"/><rect x="244" y="20" width="2" height="2" fill="#7fdcb5" fill-opacity="0.4"/><rect x="388" y="46" width="2" height="2" fill="#7fdcb5" fill-opacity="0.35"/></svg>