<svg xmlns="http://www.w3.org/2000/svg" width="680" height="64" viewBox="0 0 680 64" shape-rendering="crispEdges" xmlns:c2pa="http://c2pa.org/manifest"><metadata><c2pa:manifest>AAAWgmp1bWIAAAAeanVtZGMycGEAEQAQgAAAqgA4m3EDYzJwYQAAABZcanVtYgAAAEdqdW1kYzJtYQARABCAAACqADibcQN1cm46YzJwYTo1NDNjZjk5OC1jMWZmLTRhOGQtOTgyNC1jYThkMjMwZTY0NGYAAAADl2p1bWIAAAApanVtZGMyYXMAEQAQgAAAqgA4m3EDYzJwYS5hc3NlcnRpb25zAAAAALxqdW1iAAAARGp1bWRjYm9yABEAEIAAAKoAOJtxE2MycGEuaW5ncmVkaWVudC52MwAAAAAYYzJzaHkSb8shqVIOUZHfgPJnLp8AAABwY2JvcqNpZGM6Zm9ybWF0bWltYWdlL3N2Zyt4bWxqaW5zdGFuY2VJRHgseG1wOmlpZDoyOGY1OTgzYi0xYzBlLTRiYzAtODQ2NC0zODhlM2UzOTM5NmFscmVsYXRpb25zaGlwaHBhcmVudE9mAAAB4mp1bWIAAABBanVtZGNib3IAEQAQgAAAqgA4m3ETYzJwYS5hY3Rpb25zLnYyAAAAABhjMnNo0MDcvuDv+BzQbcczuDOyDgAAAZljYm9yomdhY3Rpb25zgqJmYWN0aW9ua2MycGEub3BlbmVkanBhcmFtZXRlcnOha2luZ3JlZGllbnRzgaJjdXJseC1zZWxmI2p1bWJmPWMycGEuYXNzZXJ0aW9ucy9jMnBhLmluZ3JlZGllbnQudjNkaGFzaFggqSRv+aOWEZmybNWDkW9Bhy3JFM02UaYoz7SmZ8mIqnekZmFjdGlvbngdY29tLmFudGhyb3BpYy5jbGF1ZGUucHJvdmlkZWRqcGFyYW1ldGVyc6F4H2NvbS5hbnRocm9waWMub3JpZ2luLWNvbmZpZGVuY2VndW5rbm93bmtkZXNjcmlwdGlvbnhmQ2xhdWRlIHByb3ZpZGVkIHRoaXMgZmlsZSBhdCB0aGUgcmVxdWVzdCBvZiBhIHVzZXIgYW5kIG1heSBoYXZlIGNyZWF0ZWQgb3IgbW9kaWZpZWQgdGhlIGZpbGUgY29udGVudHMubXNvZnR3YXJlQWdlbnShZG5hbWVmQ2xhdWRlcmFsbEFjdGlvbnNJbmNsdWRlZPUAAADIanVtYgAAAEBqdW1kY2JvcgARABCAAACqADibcRNjMnBhLmhhc2guZGF0YQAAAAAYYzJzaPz7RYimyQMLU1+qnhw2ugUAAACAY2JvcqVjYWxnZnNoYTI1NmNwYWRNAAAAAAAAAAAAAAAAAGRoYXNoWCDD8yoeGP7u5tyz1tzQGoImQSH4t4BcFgfUn+/uwZTPbWRuYW1lbmp1bWJmIG1hbmlmZXN0amV4Y2x1c2lvbnOBomVzdGFydBixZmxlbmd0aBkeBAAAAj5qdW1iAAAAJ2p1bWRjMmNsABEAEIAAAKoAOJtxA2MycGEuY2xhaW0udjIAAAACD2Nib3KlY2FsZ2ZzaGEyNTZpc2lnbmF0dXJleE1zZWxmI2p1bWJmPS9jMnBhL3VybjpjMnBhOjU0M2NmOTk4LWMxZmYtNGE4ZC05ODI0LWNhOGQyMzBlNjQ0Zi9jMnBhLnNpZ25hdHVyZWppbnN0YW5jZUlEeCx4bXA6aWlkOjhlZGQ1ODI2LTQzMzktNDA2Ni05NTc5LTU5ODdjZmUwYTE3NHJjcmVhdGVkX2Fzc2VydGlvbnODomN1cmx4LXNlbGYjanVtYmY9YzJwYS5hc3NlcnRpb25zL2MycGEuaW5ncmVkaWVudC52M2RoYXNoWCCpJG/5o5YRmbJs1YORb0GHLckUzTZRpijPtKZnyYiqd6JjdXJseCpzZWxmI2p1bWJmPWMycGEuYXNzZXJ0aW9ucy9jMnBhLmFjdGlvbnMudjJkaGFzaFggg2/ALOVOQa4I4VhG2hTFwxeCsfEG9EfL5EUHeol3TvqiY3VybHgpc2VsZiNqdW1iZj1jMnBhLmFzc2VydGlvbnMvYzJwYS5oYXNoLmRhdGFkaGFzaFggbcMtIpwqRrI90FoPA4teTVc8DMLCWAaY2yyWXtARhqp0Y2xhaW1fZ2VuZXJhdG9yX2luZm+jZG5hbWVvQW50aHJvcGljIEZpbGVzZ3ZlcnNpb25lMS4wLjBrc3BlY1ZlcnNpb25lMi40LjAAABA4anVtYgAAAChqdW1kYzJjcwARABCAAACqADibcQNjMnBhLnNpZ25hdHVyZQAAABAIY2JvctKEWQISogEmGCFZAgowggIGMIIBjaADAgECAhRA5aAK7sI50L64g/oGQgU9Z1UTADAKBggqhkjOPQQDAzBJMRcwFQYDVQQKEw5BbnRocm9waWMsIFBCQzEuMCwGA1UEAxMlQW50aHJvcGljIENvbnRlbnQgQ3JlZGVudGlhbHMgUm9vdCBDQTAeFw0yNjA4MDcxODQzNTZaFw0yODA4MDYxOTQzNTZaMEQxFzAVBgNVBAoTDkFudGhyb3BpYywgUEJDMSkwJwYDVQQDEyBBbnRocm9waWMgQ2xhdWRlIENvbnRlbnQgU2lnbmluZzBZMBMGByqGSM49AgEGCCqGSM49AwEHA0IABJh6CmvLUBgFFNU0vUKlOVtE6djd17L5SuwX0LemFisBM3dkd/3cyjxFA3Qo5S46fX0/ihY0VZ7mfb9KF703t5OjWDBWMA4GA1UdDwEB/wQEAwIHgDAVBgNVHSUEDjAMBgorBgEEAYPoXgIBMAwGA1UdEwEB/wQCMAAwHwYDVR0jBBgwFoAUzlHiBIFOZFsj+OPEz5o+nMHXXMIwCgYIKoZIzj0EAwMDZwAwZAIwMXMdFJ4BetLLVY7ORuE9noqbbAZOZn/aArXyTwFAZfKrPzxF2vPoJNf1+UCdg1XGAjBwX1zd9WGqYkqmL5SFqw1QySjr1zJfpJM9+1rdDwSPLMOPOjKuiXjoU/pUUeG9RwmhY3BhZFkNngAAAAAAAAAAAAAAAAAAAAAAAAAAAAAAAAAAAAAAAAAAAAAAAAAAAAAAAAAAAAAAAAAAAAAAAAAAAAAAAAAAAAAAAAAAAAAAAAAAAAAAAAAAAAAAAAAAAAAAAAAAAAAAAAAAAAAAAAAAAAAAAAAAAAAAAAAAAAAAAAAAAAAAAAAAAAAAAAAAAAAAAAAAAAAAAAAAAAAAAAAAAAAAAAAAAAAAAAAAAAAAAAAAAAAAAAAAAAAAAAAAAAAAAAAAAAAAAAAAAAAAAAAAAAAAAAAAAAAAAAAAAAAAAAAAAAAAAAAAAAAAAAAAAAAAAAAAAAAAAAAAAAAAAAAAAAAAAAAAAAAAAAAAAAAAAAAAAAAAAAAAAAAAAAAAAAAAAAAAAAAAAAAAAAAAAAAAAAAAAAAAAAAAAAAAAAAAAAAAAAAAAAAAAAAAAAAAAAAAAAAAAAAAAAAAAAAAAAAAAAAAAAAAAAAAAAAAAAAAAAAAAAAAAAAAAAAAAAAAAAAAAAAAAAAAAAAAAAAAAAAAAAAAAAAAAAAAAAAAAAAAAAAAAAAAAAAAAAAAAAAAAAAAAAAAAAAAAAAAAAAAAAAAAAAAAAAAAAAAAAAAAAAAAAAAAAAAAAAAAAAAAAAAAAAAAAAAAAAAAAAAAAAAAAAAAAAAAAAAAAAAAAAAAAAAAAAAAAAAAAAAAAAAAAAAAAAAAAAAAAAAAAAAAAAAAAAAAAAAAAAAAAAAAAAAAAAAAAAAAAAAAAAAAAAAAAAAAAAAAAAAAAAAAAAAAAAAAAAAAAAAAAAAAAAAAAAAAAAAAAAAAAAAAAAAAAAAAAAAAAAAAAAAAAAAAAAAAAAAAAAAAAAAAAAAAAAAAAAAAAAAAAAAAAAAAAAAAAAAAAAAAAAAAAAAAAAAAAAAAAAAAAAAAAAAAAAAAAAAAAAAAAAAAAAAAAAAAAAAAAAAAAAAAAAAAAAAAAAAAAAAAAAAAAAAAAAAAAAAAAAAAAAAAAAAAAAAAAAAAAAAAAAAAAAAAAAAAAAAAAAAAAAAAAAAAAAAAAAAAAAAAAAAAAAAAAAAAAAAAAAAAAAAAAAAAAAAAAAAAAAAAAAAAAAAAAAAAAAAAAAAAAAAAAAAAAAAAAAAAAAAAAAAAAAAAAAAAAAAAAAAAAAAAAAAAAAAAAAAAAAAAAAAAAAAAAAAAAAAAAAAAAAAAAAAAAAAAAAAAAAAAAAAAAAAAAAAAAAAAAAAAAAAAAAAAAAAAAAAAAAAAAAAAAAAAAAAAAAAAAAAAAAAAAAAAAAAAAAAAAAAAAAAAAAAAAAAAAAAAAAAAAAAAAAAAAAAAAAAAAAAAAAAAAAAAAAAAAAAAAAAAAAAAAAAAAAAAAAAAAAAAAAAAAAAAAAAAAAAAAAAAAAAAAAAAAAAAAAAAAAAAAAAAAAAAAAAAAAAAAAAAAAAAAAAAAAAAAAAAAAAAAAAAAAAAAAAAAAAAAAAAAAAAAAAAAAAAAAAAAAAAAAAAAAAAAAAAAAAAAAAAAAAAAAAAAAAAAAAAAAAAAAAAAAAAAAAAAAAAAAAAAAAAAAAAAAAAAAAAAAAAAAAAAAAAAAAAAAAAAAAAAAAAAAAAAAAAAAAAAAAAAAAAAAAAAAAAAAAAAAAAAAAAAAAAAAAAAAAAAAAAAAAAAAAAAAAAAAAAAAAAAAAAAAAAAAAAAAAAAAAAAAAAAAAAAAAAAAAAAAAAAAAAAAAAAAAAAAAAAAAAAAAAAAAAAAAAAAAAAAAAAAAAAAAAAAAAAAAAAAAAAAAAAAAAAAAAAAAAAAAAAAAAAAAAAAAAAAAAAAAAAAAAAAAAAAAAAAAAAAAAAAAAAAAAAAAAAAAAAAAAAAAAAAAAAAAAAAAAAAAAAAAAAAAAAAAAAAAAAAAAAAAAAAAAAAAAAAAAAAAAAAAAAAAAAAAAAAAAAAAAAAAAAAAAAAAAAAAAAAAAAAAAAAAAAAAAAAAAAAAAAAAAAAAAAAAAAAAAAAAAAAAAAAAAAAAAAAAAAAAAAAAAAAAAAAAAAAAAAAAAAAAAAAAAAAAAAAAAAAAAAAAAAAAAAAAAAAAAAAAAAAAAAAAAAAAAAAAAAAAAAAAAAAAAAAAAAAAAAAAAAAAAAAAAAAAAAAAAAAAAAAAAAAAAAAAAAAAAAAAAAAAAAAAAAAAAAAAAAAAAAAAAAAAAAAAAAAAAAAAAAAAAAAAAAAAAAAAAAAAAAAAAAAAAAAAAAAAAAAAAAAAAAAAAAAAAAAAAAAAAAAAAAAAAAAAAAAAAAAAAAAAAAAAAAAAAAAAAAAAAAAAAAAAAAAAAAAAAAAAAAAAAAAAAAAAAAAAAAAAAAAAAAAAAAAAAAAAAAAAAAAAAAAAAAAAAAAAAAAAAAAAAAAAAAAAAAAAAAAAAAAAAAAAAAAAAAAAAAAAAAAAAAAAAAAAAAAAAAAAAAAAAAAAAAAAAAAAAAAAAAAAAAAAAAAAAAAAAAAAAAAAAAAAAAAAAAAAAAAAAAAAAAAAAAAAAAAAAAAAAAAAAAAAAAAAAAAAAAAAAAAAAAAAAAAAAAAAAAAAAAAAAAAAAAAAAAAAAAAAAAAAAAAAAAAAAAAAAAAAAAAAAAAAAAAAAAAAAAAAAAAAAAAAAAAAAAAAAAAAAAAAAAAAAAAAAAAAAAAAAAAAAAAAAAAAAAAAAAAAAAAAAAAAAAAAAAAAAAAAAAAAAAAAAAAAAAAAAAAAAAAAAAAAAAAAAAAAAAAAAAAAAAAAAAAAAAAAAAAAAAAAAAAAAAAAAAAAAAAAAAAAAAAAAAAAAAAAAAAAAAAAAAAAAAAAAAAAAAAAAAAAAAAAAAAAAAAAAAAAAAAAAAAAAAAAAAAAAAAAAAAAAAAAAAAAAAAAAAAAAAAAAAAAAAAAAAAAAAAAAAAAAAAAAAAAAAAAAAAAAAAAAAAAAAAAAAAAAAAAAAAAAAAAAAAAAAAAAAAAAAAAAAAAAAAAAAAAAAAAAAAAAAAAAAAAAAAAAAAAAAAAAAAAAAAAAAAAAAAAAAAAAAAAAAAAAAAAAAAAAAAAAAAAAAAAAAAAAAAAAAAAAAAAAAAAAAAAAAAAAAAAAAAAAAAAAAAAAAAAAAAAAAAAAAAAAAAAAAAAAAAAAAAAAAAAAAAAAAAAAAAAAAAAAAAAAAAAAAAAAAAAAAAAAAAAAAAAAAAAAAAAAAAAAAAAAAAAAAAAAAAAAAAAAAAAAAAAAAAAAAAAAAAAAAAAAAAAAAAAAAAAAAAAAAAAAAAAAAAAAAAAAAAAAAAAAAAAAAAAAAAAAAAAAAAAAAAAAAAAAAAAAAAAAAAAAAAAAAAAAAAAAAAAAAAAAAAAAAAAAAAAAAAAAAAAAAAAAAAAAAAAAAAAAAAAAAAAAAAAAAAAAAAAAAAAAAAAAAAAAAAAAAAAAAAAAAAAAAAAAAAAAAAAAAAAAAAAAAAAAAAAAAAAAAAAAAAAAAAAAAAAAAAAAAAAAAAAAAAAAAAAAAAAAAAAAAAAAAAAAAAAAAAAAAAAAAAAAAAAAAAAAAAAAAAAAAAAAAAAAAAAAAAAAAAAAAAAAAAAAAAAAAAAAAAAAAAAAAAAAAAAAAAAAAAAAAAAAAAAAAAAAAAAAAAAAAAAAAAAAAAAAAAAAAAAAAAAAAAAAAAAAAAAAAAAAAAAAAAAAAAAAAAAAAAAAAAAAAAAAAAAAAAAAAAAAAAAAAAAAAAAAAAAAAAAAAAAAAAAAAAAAAAAAAAAAAAAAAAAAAAAAAAAAAAAAAAAAAAAAAAAAAAAAAAAAAAAAAAAAAAAAAAAAAAAAAAAAAAAAAAAAAAAAAAAAAAAAAAAAAAAAAAAAAAAAAAAAAAAAAAAAAAAAAAAAAAAAAAAAAAAAAAAAAAAAAAAAAAAAAAAAAAAAAAAAAAAAAAAAAAAAAAAAAAAAAAAAAAAAAAAAAAAAAAAAAAAAAAAAAAAAAAAAAAAAAAAAAAAAAAAAAAAAAAAAAAAAAAAAAAAAAAAAAAAAAAAAAAAAAAAAAAAAAAAAAAAAAAAAAAAAAAAAAAAAAAAAAAAAAAAAAAAAAAAAAAAAAAAAAAAAAAAAAAAAAAAAAAAAAAAAAAAAAAAAAAAAAAAAAAAAAAAAAAAAAAAAAAAAAAAAAAAAAAAAAAAAAAAAAAAAAAAAAAAAAAAAAAAAAAAAAAAAAAAAAAAAAAAAAAAAAAAAAAAAAAAAAAAAAAAAAAAAAAAAAAAAAAAAAAAAAAAAAAAAAAAAAAAAAAAAAAAAAAAAAAAAAAAAAAAAAAAAAAAAAAAAAAAAAAAAAAAAAAAAAAAAAAAAAAAAAAAAAAAAAAAAAAAAAAAAAAAAAAAAAAAAAAAAAAAAAAAAAAAAAAAAAAAAAAAAAAAAAAAAAAAAAAAAAAAAAAAAAAAAAAAAAAAAAAAAAAAAAAAAAAAAAAAAAAAAAAAAAAAAAAAAAAAAAAAAAAAAAAAAAAAAAAAAAAAAAAAAAAAAAAAAAAAAAAAAAAAAAAAAAAAAAAAAAAAAAAAAAAAAAAAAAAAAAAAAAAAAAAAAAAAAAAAAAAAAAAAAAAAAAAAAAAAAAAAAAAAAAAAAAAAAAAAAAAAAAAAAAAAAAAAAAAAAAAAAAAAAAAAAAAAAAAAAAAAAAAAAAAAAAAAAAAAAAAAAAAAAAAAAAAAAAAAAAAAAPZYQDl2Pa3H6DDN5CNOsCnLQ8eciEyFpvMfEH6h5y0O600wa2hPQQ1EEyJ9BYQ7lXR8k5Oo2n8wpTvka9aqeUjLQVo=</c2pa:manifest></metadata><rect x="8" y="0" width="664" height="64" fill="#0a0d18"/><rect x="4" y="4" width="672" height="56" fill="#0a0d18"/><rect x="0" y="8" width="680" height="48" fill="#0a0d18"/><rect x="8" y="0" width="664" height="2" fill="#2b3556"/><rect x="8" y="62" width="664" height="2" fill="#2b3556"/><rect x="0" y="8" width="2" height="48" fill="#2b3556"/><rect x="678" y="8" width="2" height="48" fill="#2b3556"/><rect x="4" y="2" width="4" height="2" fill="#2b3556"/><rect x="2" y="4" width="2" height="4" fill="#2b3556"/><rect x="672" y="2" width="4" height="2" fill="#2b3556"/><rect x="676" y="4" width="2" height="4" fill="#2b3556"/><rect x="4" y="60" width="4" height="2" fill="#2b3556"/><rect x="2" y="56" width="2" height="4" fill="#2b3556"/><rect x="672" y="60" width="4" height="2" fill="#2b3556"/><rect x="676" y="56" width="2" height="4" fill="#2b3556"/><rect x="12" y="6" width="656" height="2" fill="#5a6a99" fill-opacity="0.55"/><rect x="12" y="56" width="656" height="2" fill="#5a6a99" fill-opacity="0.55"/><rect x="6" y="6" width="4" height="4" fill="#ffd75e"/><rect x="670" y="6" width="4" height="4" fill="#ffd75e"/><rect x="6" y="54" width="4" height="4" fill="#ffd75e"/><rect x="670" y="54" width="4" height="4" fill="#ffd75e"/><rect x="18" y="14" width="54" height="36" fill="#ffd75e" fill-opacity="0.07"/><rect x="24" y="5" width="42" height="54" fill="#ffd75e" fill-opacity="0.08"/><rect x="30" y="8" width="3" height="3" fill="#e9eefb"/><rect x="57" y="8" width="3" height="3" fill="#e9eefb"/><rect x="30" y="11" width="6" height="3" fill="#e9eefb"/><rect x="54" y="11" width="6" height="3" fill="#e9eefb"/><rect x="30" y="14" width="6" height="3" fill="#e9eefb"/><rect x="54" y="14" width="6" height="3" fill="#e9eefb"/><rect x="33" y="17" width="6" height="3" fill="#e9eefb"/><rect x="51" y="17" width="6" height="3" fill="#e9eefb"/><rect x="33" y="20" width="24" height="3" fill="#e9eefb"/><rect x="30" y="23" width="30" height="3" fill="#e9eefb"/><rect x="27" y="26" width="33" height="3" fill="#e9eefb"/><rect x="60" y="26" width="3" height="3" fill="#9aa8cc"/><rect x="27" y="29" width="6" height="3" fill="#e9eefb"/><rect x="33" y="29" width="6" height="3" fill="#05070d"/><rect x="39" y="29" width="12" height="3" fill="#e9eefb"/><rect x="51" y="29" width="6" height="3" fill="#05070d"/><rect x="57" y="29" width="3" height="3" fill="#e9eefb"/><rect x="60" y="29" width="3" height="3" fill="#9aa8cc"/><rect x="27" y="32" width="6" height="3" fill="#e9eefb"/><rect x="33" y="32" width="9" height="3" fill="#05070d"/><rect x="42" y="32" width="6" height="3" fill="#e9eefb"/><rect x="48" y="32" width="9" height="3" fill="#05070d"/><rect x="57" y="32" width="3" height="3" fill="#e9eefb"/><rect x="60" y="32" width="3" height="3" fill="#9aa8cc"/><rect x="27" y="35" width="6" height="3" fill="#e9eefb"/><rect x="33" y="35" width="9" height="3" fill="#05070d"/><rect x="42" y="35" width="6" height="3" fill="#e9eefb"/><rect x="48" y="35" width="9" height="3" fill="#05070d"/><rect x="57" y="35" width="3" height="3" fill="#e9eefb"/><rect x="60" y="35" width="3" height="3" fill="#9aa8cc"/><rect x="27" y="38" width="9" height="3" fill="#e9eefb"/><rect x="36" y="38" width="6" height="3" fill="#05070d"/><rect x="42" y="38" width="9" height="3" fill="#e9eefb"/><rect x="51" y="38" width="6" height="3" fill="#05070d"/><rect x="57" y="38" width="3" height="3" fill="#e9eefb"/><rect x="60" y="38" width="3" height="3" fill="#9aa8cc"/><rect x="27" y="41" width="33" height="3" fill="#e9eefb"/><rect x="60" y="41" width="3" height="3" fill="#9aa8cc"/><rect x="30" y="44" width="24" height="3" fill="#e9eefb"/><rect x="54" y="44" width="6" height="3" fill="#9aa8cc"/><rect x="33" y="47" width="21" height="3" fill="#e9eefb"/><rect x="54" y="47" width="3" height="3" fill="#9aa8cc"/><rect x="36" y="50" width="15" height="3" fill="#e9eefb"/><rect x="51" y="50" width="3" height="3" fill="#9aa8cc"/><rect x="39" y="53" width="9" height="3" fill="#e9eefb"/><rect x="48" y="53" width="3" height="3" fill="#9aa8cc"/><rect x="33" y="32" width="3" height="3" fill="#ffd75e"/><rect x="54" y="32" width="3" height="3" fill="#ffd75e"/><rect x="78" y="16" width="2" height="32" fill="#5a6a99" fill-opacity="0.6"/><rect x="78" y="24" width="2" height="16" fill="#ffd75e"/><rect x="97" y="21" width="20" height="4" fill="#ffd75e" fill-opacity="0.35"/><rect x="97" y="25" width="4" height="4" fill="#ffd75e" fill-opacity="0.35"/><rect x="97" y="29" width="4" height="4" fill="#ffd75e" fill-opacity="0.35"/><rect x="97" y="33" width="16" height="4" fill="#ffd75e" fill-opacity="0.35"/><rect x="97" y="37" width="4" height="4" fill="#ffd75e" fill-opacity="0.35"/><rect x="97" y="41" width="4" height="4" fill="#ffd75e" fill-opacity="0.35"/><rect x="97" y="45" width="4" height="4" fill="#ffd75e" fill-opacity="0.35"/><rect x="121" y="21" width="16" height="4" fill="#ffd75e" fill-opacity="0.35"/><rect x="121" y="25" width="4" height="4" fill="#ffd75e" fill-opacity="0.35"/><rect x="137" y="25" width="4" height="4" fill="#ffd75e" fill-opacity="0.35"/><rect x="121" y="29" width="4" height="4" fill="#ffd75e" fill-opacity="0.35"/><rect x="137" y="29" width="4" height="4" fill="#ffd75e" fill-opacity="0.35"/><rect x="121" y="33" width="16" height="4" fill="#ffd75e" fill-opacity="0.35"/><rect x="121" y="37" width="4" height="4" fill="#ffd75e" fill-opacity="0.35"/><rect x="129" y="37" width="4" height="4" fill="#ffd75e" fill-opacity="0.35"/><rect x="121" y="41" width="4" height="4" fill="#ffd75e" fill-opacity="0.35"/><rect x="133" y="41" width="4" height="4" fill="#ffd75e" fill-opacity="0.35"/><rect x="121" y="45" width="4" height="4" fill="#ffd75e" fill-opacity="0.35"/><rect x="137" y="45" width="4" height="4" fill="#ffd75e" fill-opacity="0.35"/><rect x="149" y="21" width="12" height="4" fill="#ffd75e" fill-opacity="0.35"/><rect x="145" y="25" width="4" height="4" fill="#ffd75e" fill-opacity="0.35"/><rect x="161" y="25" width="4" height="4" fill="#ffd75e" fill-opacity="0.35"/><rect x="145" y="29" width="4" height="4" fill="#ffd75e" fill-opacity="0.35"/><rect x="161" y="29" width="4" height="4" fill="#ffd75e" fill-opacity="0.35"/><rect x="145" y="33" width="20" height="4" fill="#ffd75e" fill-opacity="0.35"/><rect x="145" y="37" width="4" height="4" fill="#ffd75e" fill-opacity="0.35"/><rect x="161" y="37" width="4" height="4" fill="#ffd75e" fill-opacity="0.35"/><rect x="145" y="41" width="4" height="4" fill="#ffd75e" fill-opacity="0.35"/><rect x="161" y="41" width="4" height="4" fill="#ffd75e" fill-opacity="0.35"/><rect x="145" y="45" width="4" height="4" fill="#ffd75e" fill-opacity="0.35"/><rect x="161" y="45" width="4" height="4" fill="#ffd75e" fill-opacity="0.35"/><rect x="169" y="21" width="4" height="4" fill="#ffd75e" fill-opacity="0.35"/><rect x="185" y="21" width="4" height="4" fill="#ffd75e" fill-opacity="0.35"/><rect x="169" y="25" width="8" height="4" fill="#ffd75e" fill-opacity="0.35"/><rect x="181" y="25" width="8" height="4" fill="#ffd75e" fill-opacity="0.35"/><rect x="169" y="29" width="4" height="4" fill="#ffd75e" fill-opacity="0.35"/><rect x="177" y="29" width="4" height="4" fill="#ffd75e" fill-opacity="0.35"/><rect x="185" y="29" width="4" height="4" fill="#ffd75e" fill-opacity="0.35"/><rect x="169" y="33" width="4" height="4" fill="#ffd75e" fill-opacity="0.35"/><rect x="177" y="33" width="4" height="4" fill="#ffd75e" fill-opacity="0.35"/><rect x="185" y="33" width="4" height="4" fill="#ffd75e" fill-opacity="0.35"/><rect x="169" y="37" width="4" height="4" fill="#ffd75e" fill-opacity="0.35"/><rect x="185" y="37" width="4" height="4" fill="#ffd75e" fill-opacity="0.35"/><rect x="169" y="41" width="4" height="4" fill="#ffd75e" fill-opacity="0.35"/><rect x="185" y="41" width="4" height="4" fill="#ffd75e" fill-opacity="0.35"/><rect x="169" y="45" width="4" height="4" fill="#ffd75e" fill-opacity="0.35"/><rect x="185" y="45" width="4" height="4" fill="#ffd75e" fill-opacity="0.35"/><rect x="193" y="21" width="20" height="4" fill="#ffd75e" fill-opacity="0.35"/><rect x="193" y="25" width="4" height="4" fill="#ffd75e" fill-opacity="0.35"/><rect x="193" y="29" width="4" height="4" fill="#ffd75e" fill-opacity="0.35"/><rect x="193" y="33" width="16" height="4" fill="#ffd75e" fill-opacity="0.35"/><rect x="193" y="37" width="4" height="4" fill="#ffd75e" fill-opacity="0.35"/><rect x="193" y="41" width="4" height="4" fill="#ffd75e" fill-opacity="0.35"/><rect x="193" y="45" width="20" height="4" fill="#ffd75e" fill-opacity="0.35"/><rect x="217" y="21" width="4" height="4" fill="#ffd75e" fill-opacity="0.35"/><rect x="233" y="21" width="4" height="4" fill="#ffd75e" fill-opacity="0.35"/><rect x="217" y="25" width="4" height="4" fill="#ffd75e" fill-opacity="0.35"/><rect x="233" y="25" width="4" height="4" fill="#ffd75e" fill-opacity="0.35"/><rect x="217" y="29" width="4" height="4" fill="#ffd75e" fill-opacity="0.35"/><rect x="233" y="29" width="4" height="4" fill="#ffd75e" fill-opacity="0.35"/><rect x="217" y="33" width="4" height="4" fill="#ffd75e" fill-opacity="0.35"/><rect x="225" y="33" width="4" height="4" fill="#ffd75e" fill-opacity="0.35"/><rect x="233" y="33" width="4" height="4" fill="#ffd75e" fill-opacity="0.35"/><rect x="217" y="37" width="4" height="4" fill="#ffd75e" fill-opacity="0.35"/><rect x="225" y="37" width="4" height="4" fill="#ffd75e" fill-opacity="0.35"/><rect x="233" y="37" width="4" height="4" fill="#ffd75e" fill-opacity="0.35"/><rect x="217" y="41" width="8" height="4" fill="#ffd75e" fill-opacity="0.35"/><rect x="229" y="41" width="8" height="4" fill="#ffd75e" fill-opacity="0.35"/><rect x="217" y="45" width="4" height="4" fill="#ffd75e" fill-opacity="0.35"/><rect x="233" y="45" width="4" height="4" fill="#ffd75e" fill-opacity="0.35"/><rect x="245" y="21" width="12" height="4" fill="#ffd75e" fill-opacity="0.35"/><rect x="241" y="25" width="4" height="4" fill="#ffd75e" fill-opacity="0.35"/><rect x="257" y="25" width="4" height="4" fill="#ffd75e" fill-opacity="0.35"/><rect x="241" y="29" width="4" height="4" fill="#ffd75e" fill-opacity="0.35"/><rect x="257" y="29" width="4" height="4" fill="#ffd75e" fill-opacity="0.35"/><rect x="241" y="33" width="4" height="4" fill="#ffd75e" fill-opacity="0.35"/><rect x="257" y="33" width="4" height="4" fill="#ffd75e" fill-opacity="0.35"/><rect x="241" y="37" width="4" height="4" fill="#ffd75e" fill-opacity="0.35"/><rect x="257" y="37" width="4" height="4" fill="#ffd75e" fill-opacity="0.35"/><rect x="241" y="41" width="4" height="4" fill="#ffd75e" fill-opacity="0.35"/><rect x="257" y="41" width="4" height="4" fill="#ffd75e" fill-opacity="0.35"/><rect x="245" y="45" width="12" height="4" fill="#ffd75e" fill-opacity="0.35"/><rect x="265" y="21" width="16" height="4" fill="#ffd75e" fill-opacity="0.35"/><rect x="265" y="25" width="4" height="4" fill="#ffd75e" fill-opacity="0.35"/><rect x="281" y="25" width="4" height="4" fill="#ffd75e" fill-opacity="0.35"/><rect x="265" y="29" width="4" height="4" fill="#ffd75e" fill-opacity="0.35"/><rect x="281" y="29" width="4" height="4" fill="#ffd75e" fill-opacity="0.35"/><rect x="265" y="33" width="16" height="4" fill="#ffd75e" fill-opacity="0.35"/><rect x="265" y="37" width="4" height="4" fill="#ffd75e" fill-opacity="0.35"/><rect x="273" y="37" width="4" height="4" fill="#ffd75e" fill-opacity="0.35"/><rect x="265" y="41" width="4" height="4" fill="#ffd75e" fill-opacity="0.35"/><rect x="277" y="41" width="4" height="4" fill="#ffd75e" fill-opacity="0.35"/><rect x="265" y="45" width="4" height="4" fill="#ffd75e" fill-opacity="0.35"/><rect x="281" y="45" width="4" height="4" fill="#ffd75e" fill-opacity="0.35"/><rect x="289" y="21" width="4" height="4" fill="#ffd75e" fill-opacity="0.35"/><rect x="305" y="21" width="4" height="4" fill="#ffd75e" fill-opacity="0.35"/><rect x="289" y="25" width="4" height="4" fill="#ffd75e" fill-opacity="0.35"/><rect x="301" y="25" width="4" height="4" fill="#ffd75e" fill-opacity="0.35"/><rect x="289" y="29" width="4" height="4" fill="#ffd75e" fill-opacity="0.35"/><rect x="297" y="29" width="4" height="4" fill="#ffd75e" fill-opacity="0.35"/><rect x="289" y="33" width="8" height="4" fill="#ffd75e" fill-opacity="0.35"/><rect x="289" y="37" width="4" height="4" fill="#ffd75e" fill-opacity="0.35"/><rect x="297" y="37" width="4" height="4" fill="#ffd75e" fill-opacity="0.35"/><rect x="289" y="41" width="4" height="4" fill="#ffd75e" fill-opacity="0.35"/><rect x="301" y="41" width="4" height="4" fill="#ffd75e" fill-opacity="0.35"/><rect x="289" y="45" width="4" height="4" fill="#ffd75e" fill-opacity="0.35"/><rect x="305" y="45" width="4" height="4" fill="#ffd75e" fill-opacity="0.35"/><rect x="317" y="21" width="16" height="4" fill="#ffd75e" fill-opacity="0.35"/><rect x="313" y="25" width="4" height="4" fill="#ffd75e" fill-opacity="0.35"/><rect x="313" y="29" width="4" height="4" fill="#ffd75e" fill-opacity="0.35"/><rect x="317" y="33" width="12" height="4" fill="#ffd75e" fill-opacity="0.35"/><rect x="329" y="37" width="4" height="4" fill="#ffd75e" fill-opacity="0.35"/><rect x="329" y="41" width="4" height="4" fill="#ffd75e" fill-opacity="0.35"/><rect x="313" y="45" width="16" height="4" fill="#ffd75e" fill-opacity="0.35"/><rect x="94" y="18" width="20" height="4" fill="#e9eefb"/><rect x="94" y="22" width="4" height="4" fill="#e9eefb"/><rect x="94" y="26" width="4" height="4" fill="#e9eefb"/><rect x="94" y="30" width="16" height="4" fill="#e9eefb"/><rect x="94" y="34" width="4" height="4" fill="#e9eefb"/><rect x="94" y="38" width="4" height="4" fill="#e9eefb"/><rect x="94" y="42" width="4" height="4" fill="#e9eefb"/><rect x="118" y="18" width="16" height="4" fill="#e9eefb"/><rect x="118" y="22" width="4" height="4" fill="#e9eefb"/><rect x="134" y="22" width="4" height="4" fill="#e9eefb"/><rect x="118" y="26" width="4" height="4" fill="#e9eefb"/><rect x="134" y="26" width="4" height="4" fill="#e9eefb"/><rect x="118" y="30" width="16" height="4" fill="#e9eefb"/><rect x="118" y="34" width="4" height="4" fill="#e9eefb"/><rect x="126" y="34" width="4" height="4" fill="#e9eefb"/><rect x="118" y="38" width="4" height="4" fill="#e9eefb"/><rect x="130" y="38" width="4" height="4" fill="#e9eefb"/><rect x="118" y="42" width="4" height="4" fill="#e9eefb"/><rect x="134" y="42" width="4" height="4" fill="#e9eefb"/><rect x="146" y="18" width="12" height="4" fill="#e9eefb"/><rect x="142" y="22" width="4" height="4" fill="#e9eefb"/><rect x="158" y="22" width="4" height="4" fill="#e9eefb"/><rect x="142" y="26" width="4" height="4" fill="#e9eefb"/><rect x="158" y="26" width="4" height="4" fill="#e9eefb"/><rect x="142" y="30" width="20" height="4" fill="#e9eefb"/><rect x="142" y="34" width="4" height="4" fill="#e9eefb"/><rect x="158" y="34" width="4" height="4" fill="#e9eefb"/><rect x="142" y="38" width="4" height="4" fill="#e9eefb"/><rect x="158" y="38" width="4" height="4" fill="#e9eefb"/><rect x="142" y="42" width="4" height="4" fill="#e9eefb"/><rect x="158" y="42" width="4" height="4" fill="#e9eefb"/><rect x="166" y="18" width="4" height="4" fill="#e9eefb"/><rect x="182" y="18" width="4" height="4" fill="#e9eefb"/><rect x="166" y="22" width="8" height="4" fill="#e9eefb"/><rect x="178" y="22" width="8" height="4" fill="#e9eefb"/><rect x="166" y="26" width="4" height="4" fill="#e9eefb"/><rect x="174" y="26" width="4" height="4" fill="#e9eefb"/><rect x="182" y="26" width="4" height="4" fill="#e9eefb"/><rect x="166" y="30" width="4" height="4" fill="#e9eefb"/><rect x="174" y="30" width="4" height="4" fill="#e9eefb"/><rect x="182" y="30" width="4" height="4" fill="#e9eefb"/><rect x="166" y="34" width="4" height="4" fill="#e9eefb"/><rect x="182" y="34" width="4" height="4" fill="#e9eefb"/><rect x="166" y="38" width="4" height="4" fill="#e9eefb"/><rect x="182" y="38" width="4" height="4" fill="#e9eefb"/><rect x="166" y="42" width="4" height="4" fill="#e9eefb"/><rect x="182" y="42" width="4" height="4" fill="#e9eefb"/><rect x="190" y="18" width="20" height="4" fill="#e9eefb"/><rect x="190" y="22" width="4" height="4" fill="#e9eefb"/><rect x="190" y="26" width="4" height="4" fill="#e9eefb"/><rect x="190" y="30" width="16" height="4" fill="#e9eefb"/><rect x="190" y="34" width="4" height="4" fill="#e9eefb"/><rect x="190" y="38" width="4" height="4" fill="#e9eefb"/><rect x="190" y="42" width="20" height="4" fill="#e9eefb"/><rect x="214" y="18" width="4" height="4" fill="#e9eefb"/><rect x="230" y="18" width="4" height="4" fill="#e9eefb"/><rect x="214" y="22" width="4" height="4" fill="#e9eefb"/><rect x="230" y="22" width="4" height="4" fill="#e9eefb"/><rect x="214" y="26" width="4" height="4" fill="#e9eefb"/><rect x="230" y="26" width="4" height="4" fill="#e9eefb"/><rect x="214" y="30" width="4" height="4" fill="#e9eefb"/><rect x="222" y="30" width="4" height="4" fill="#e9eefb"/><rect x="230" y="30" width="4" height="4" fill="#e9eefb"/><rect x="214" y="34" width="4" height="4" fill="#e9eefb"/><rect x="222" y="34" width="4" height="4" fill="#e9eefb"/><rect x="230" y="34" width="4" height="4" fill="#e9eefb"/><rect x="214" y="38" width="8" height="4" fill="#e9eefb"/><rect x="226" y="38" width="8" height="4" fill="#e9eefb"/><rect x="214" y="42" width="4" height="4" fill="#e9eefb"/><rect x="230" y="42" width="4" height="4" fill="#e9eefb"/><rect x="242" y="18" width="12" height="4" fill="#e9eefb"/><rect x="238" y="22" width="4" height="4" fill="#e9eefb"/><rect x="254" y="22" width="4" height="4" fill="#e9eefb"/><rect x="238" y="26" width="4" height="4" fill="#e9eefb"/><rect x="254" y="26" width="4" height="4" fill="#e9eefb"/><rect x="238" y="30" width="4" height="4" fill="#e9eefb"/><rect x="254" y="30" width="4" height="4" fill="#e9eefb"/><rect x="238" y="34" width="4" height="4" fill="#e9eefb"/><rect x="254" y="34" width="4" height="4" fill="#e9eefb"/><rect x="238" y="38" width="4" height="4" fill="#e9eefb"/><rect x="254" y="38" width="4" height="4" fill="#e9eefb"/><rect x="242" y="42" width="12" height="4" fill="#e9eefb"/><rect x="262" y="18" width="16" height="4" fill="#e9eefb"/><rect x="262" y="22" width="4" height="4" fill="#e9eefb"/><rect x="278" y="22" width="4" height="4" fill="#e9eefb"/><rect x="262" y="26" width="4" height="4" fill="#e9eefb"/><rect x="278" y="26" width="4" height="4" fill="#e9eefb"/><rect x="262" y="30" width="16" height="4" fill="#e9eefb"/><rect x="262" y="34" width="4" height="4" fill="#e9eefb"/><rect x="270" y="34" width="4" height="4" fill="#e9eefb"/><rect x="262" y="38" width="4" height="4" fill="#e9eefb"/><rect x="274" y="38" width="4" height="4" fill="#e9eefb"/><rect x="262" y="42" width="4" height="4" fill="#e9eefb"/><rect x="278" y="42" width="4" height="4" fill="#e9eefb"/><rect x="286" y="18" width="4" height="4" fill="#e9eefb"/><rect x="302" y="18" width="4" height="4" fill="#e9eefb"/><rect x="286" y="22" width="4" height="4" fill="#e9eefb"/><rect x="298" y="22" width="4" height="4" fill="#e9eefb"/><rect x="286" y="26" width="4" height="4" fill="#e9eefb"/><rect x="294" y="26" width="4" height="4" fill="#e9eefb"/><rect x="286" y="30" width="8" height="4" fill="#e9eefb"/><rect x="286" y="34" width="4" height="4" fill="#e9eefb"/><rect x="294" y="34" width="4" height="4" fill="#e9eefb"/><rect x="286" y="38" width="4" height="4" fill="#e9eefb"/><rect x="298" y="38" width="4" height="4" fill="#e9eefb"/><rect x="286" y="42" width="4" height="4" fill="#e9eefb"/><rect x="302" y="42" width="4" height="4" fill="#e9eefb"/><rect x="314" y="18" width="16" height="4" fill="#e9eefb"/><rect x="310" y="22" width="4" height="4" fill="#e9eefb"/><rect x="310" y="26" width="4" height="4" fill="#e9eefb"/><rect x="314" y="30" width="12" height="4" fill="#e9eefb"/><rect x="326" y="34" width="4" height="4" fill="#e9eefb"/><rect x="326" y="38" width="4" height="4" fill="#e9eefb"/><rect x="310" y="42" width="16" height="4" fill="#e9eefb"/><rect x="402" y="25" width="10" height="2" fill="#6f80aa"/><rect x="406" y="27" width="2" height="2" fill="#6f80aa"/><rect x="406" y="29" width="2" height="2" fill="#6f80aa"/><rect x="406" y="31" width="2" height="2" fill="#6f80aa"/><rect x="406" y="33" width="2" height="2" fill="#6f80aa"/><rect x="406" y="35" width="2" height="2" fill="#6f80aa"/><rect x="406" y="37" width="2" height="2" fill="#6f80aa"/><rect x="416" y="25" width="6" height="2" fill="#6f80aa"/><rect x="414" y="27" width="2" height="2" fill="#6f80aa"/><rect x="422" y="27" width="2" height="2" fill="#6f80aa"/><rect x="414" y="29" width="2" height="2" fill="#6f80aa"/><rect x="422" y="29" width="2" height="2" fill="#6f80aa"/><rect x="414" y="31" width="2" height="2" fill="#6f80aa"/><rect x="422" y="31" width="2" height="2" fill="#6f80aa"/><rect x="414" y="33" width="2" height="2" fill="#6f80aa"/><rect x="422" y="33" width="2" height="2" fill="#6f80aa"/><rect x="414" y="35" width="2" height="2" fill="#6f80aa"/><rect x="422" y="35" width="2" height="2" fill="#6f80aa"/><rect x="416" y="37" width="6" height="2" fill="#6f80aa"/><rect x="428" y="25" width="6" height="2" fill="#6f80aa"/><rect x="426" y="27" width="2" height="2" fill="#6f80aa"/><rect x="434" y="27" width="2" height="2" fill="#6f80aa"/><rect x="426" y="29" width="2" height="2" fill="#6f80aa"/><rect x="434" y="29" width="2" height="2" fill="#6f80aa"/><rect x="426" y="31" width="2" height="2" fill="#6f80aa"/><rect x="434" y="31" width="2" height="2" fill="#6f80aa"/><rect x="426" y="33" width="2" height="2" fill="#6f80aa"/><rect x="434" y="33" width="2" height="2" fill="#6f80aa"/><rect x="426" y="35" width="2" height="2" fill="#6f80aa"/><rect x="434" y="35" width="2" height="2" fill="#6f80aa"/><rect x="428" y="37" width="6" height="2" fill="#6f80aa"/><rect x="438" y="25" width="2" height="2" fill="#6f80aa"/><rect x="438" y="27" width="2" height="2" fill="#6f80aa"/><rect x="438" y="29" width="2" height="2" fill="#6f80aa"/><rect x="438" y="31" width="2" height="2" fill="#6f80aa"/><rect x="438" y="33" width="2" height="2" fill="#6f80aa"/><rect x="438" y="35" width="2" height="2" fill="#6f80aa"/><rect x="438" y="37" width="10" height="2" fill="#6f80aa"/><rect x="452" y="25" width="8" height="2" fill="#6f80aa"/><rect x="450" y="27" width="2" height="2" fill="#6f80aa"/><rect x="450" y="29" width="2" height="2" fill="#6f80aa"/><rect x="452" y="31" width="6" height="2" fill="#6f80aa"/><rect x="458" y="33" width="2" height="2" fill="#6f80aa"/><rect x="458" y="35" width="2" height="2" fill="#6f80aa"/><rect x="450" y="37" width="8" height="2" fill="#6f80aa"/><rect x="476" y="25" width="6" height="2" fill="#6f80aa"/><rect x="474" y="27" width="2" height="2" fill="#6f80aa"/><rect x="482" y="27" width="2" height="2" fill="#6f80aa"/><rect x="474" y="29" width="2" height="2" fill="#6f80aa"/><rect x="482" y="29" width="2" height="2" fill="#6f80aa"/><rect x="474" y="31" width="2" height="2" fill="#6f80aa"/><rect x="482" y="31" width="2" height="2" fill="#6f80aa"/><rect x="474" y="33" width="2" height="2" fill="#6f80aa"/><rect x="482" y="33" width="2" height="2" fill="#6f80aa"/><rect x="474" y="35" width="2" height="2" fill="#6f80aa"/><rect x="482" y="35" width="2" height="2" fill="#6f80aa"/><rect x="476" y="37" width="6" height="2" fill="#6f80aa"/><rect x="486" y="25" width="10" height="2" fill="#6f80aa"/><rect x="486" y="27" width="2" height="2" fill="#6f80aa"/><rect x="486" y="29" width="2" height="2" fill="#6f80aa"/><rect x="486" y="31" width="8" height="2" fill="#6f80aa"/><rect x="486" y="33" width="2" height="2" fill="#6f80aa"/><rect x="486" y="35" width="2" height="2" fill="#6f80aa"/><rect x="486" y="37" width="2" height="2" fill="#6f80aa"/><rect x="510" y="25" width="10" height="2" fill="#6f80aa"/><rect x="514" y="27" width="2" height="2" fill="#6f80aa"/><rect x="514" y="29" width="2" height="2" fill="#6f80aa"/><rect x="514" y="31" width="2" height="2" fill="#6f80aa"/><rect x="514" y="33" width="2" height="2" fill="#6f80aa"/><rect x="514" y="35" width="2" height="2" fill="#6f80aa"/><rect x="514" y="37" width="2" height="2" fill="#6f80aa"/><rect x="522" y="25" width="2" height="2" fill="#6f80aa"/><rect x="530" y="25" width="2" height="2" fill="#6f80aa"/><rect x="522" y="27" width="2" height="2" fill="#6f80aa"/><rect x="530" y="27" width="2" height="2" fill="#6f80aa"/><rect x="522" y="29" width="2" height="2" fill="#6f80aa"/><rect x="530" y="29" width="2" height="2" fill="#6f80aa"/><rect x="522" y="31" width="10" height="2" fill="#6f80aa"/><rect x="522" y="33" width="2" height="2" fill="#6f80aa"/><rect x="530" y="33" width="2" height="2" fill="#6f80aa"/><rect x="522" y="35" width="2" height="2" fill="#6f80aa"/><rect x="530" y="35" width="2" height="2" fill="#6f80aa"/><rect x="522" y="37" width="2" height="2" fill="#6f80aa"/><rect x="530" y="37" width="2" height="2" fill="#6f80aa"/><rect x="534" y="25" width="10" height="2" fill="#6f80aa"/><rect x="534" y="27" width="2" height="2" fill="#6f80aa"/><rect x="534" y="29" width="2" height="2" fill="#6f80aa"/><rect x="534" y="31" width="8" height="2" fill="#6f80aa"/><rect x="534" y="33" width="2" height="2" fill="#6f80aa"/><rect x="534" y="35" width="2" height="2" fill="#6f80aa"/><rect x="534" y="37" width="10" height="2" fill="#6f80aa"/><rect x="558" y="25" width="2" height="2" fill="#6f80aa"/><rect x="566" y="25" width="2" height="2" fill="#6f80aa"/><rect x="558" y="27" width="2" height="2" fill="#6f80aa"/><rect x="566" y="27" width="2" height="2" fill="#6f80aa"/><rect x="558" y="29" width="2" height="2" fill="#6f80aa"/><rect x="566" y="29" width="2" height="2" fill="#6f80aa"/><rect x="558" y="31" width="2" height="2" fill="#6f80aa"/><rect x="562" y="31" width="2" height="2" fill="#6f80aa"/><rect x="566" y="31" width="2" height="2" fill="#6f80aa"/><rect x="558" y="33" width="2" height="2" fill="#6f80aa"/><rect x="562" y="33" width="2" height="2" fill="#6f80aa"/><rect x="566" y="33" width="2" height="2" fill="#6f80aa"/><rect x="558" y="35" width="4" height="2" fill="#6f80aa"/><rect x="564" y="35" width="4" height="2" fill="#6f80aa"/><rect x="558" y="37" width="2" height="2" fill="#6f80aa"/><rect x="566" y="37" width="2" height="2" fill="#6f80aa"/><rect x="572" y="25" width="6" height="2" fill="#6f80aa"/><rect x="570" y="27" width="2" height="2" fill="#6f80aa"/><rect x="578" y="27" width="2" height="2" fill="#6f80aa"/><rect x="570" y="29" width="2" height="2" fill="#6f80aa"/><rect x="578" y="29" width="2" height="2" fill="#6f80aa"/><rect x="570" y="31" width="10" height="2" fill="#6f80aa"/><rect x="570" y="33" width="2" height="2" fill="#6f80aa"/><rect x="578" y="33" width="2" height="2" fill="#6f80aa"/><rect x="570" y="35" width="2" height="2" fill="#6f80aa"/><rect x="578" y="35" width="2" height="2" fill="#6f80aa"/><rect x="570" y="37" width="2" height="2" fill="#6f80aa"/><rect x="578" y="37" width="2" height="2" fill="#6f80aa"/><rect x="582" y="25" width="2" height="2" fill="#6f80aa"/><rect x="590" y="25" width="2" height="2" fill="#6f80aa"/><rect x="582" y="27" width="4" height="2" fill="#6f80aa"/><rect x="590" y="27" width="2" height="2" fill="#6f80aa"/><rect x="582" y="29" width="2" height="2" fill="#6f80aa"/><rect x="586" y="29" width="2" height="2" fill="#6f80aa"/><rect x="590" y="29" width="2" height="2" fill="#6f80aa"/><rect x="582" y="31" width="2" height="2" fill="#6f80aa"/><rect x="588" y="31" width="4" height="2" fill="#6f80aa"/><rect x="582" y="33" width="2" height="2" fill="#6f80aa"/><rect x="590" y="33" width="2" height="2" fill="#6f80aa"/><rect x="582" y="35" width="2" height="2" fill="#6f80aa"/><rect x="590" y="35" width="2" height="2" fill="#6f80aa"/><rect x="582" y="37" width="2" height="2" fill="#6f80aa"/><rect x="590" y="37" width="2" height="2" fill="#6f80aa"/><rect x="594" y="25" width="8" height="2" fill="#6f80aa"/><rect x="594" y="27" width="2" height="2" fill="#6f80aa"/><rect x="602" y="27" width="2" height="2" fill="#6f80aa"/><rect x="594" y="29" width="2" height="2" fill="#6f80aa"/><rect x="602" y="29" width="2" height="2" fill="#6f80aa"/><rect x="594" y="31" width="2" height="2" fill="#6f80aa"/><rect x="602" y="31" width="2" height="2" fill="#6f80aa"/><rect x="594" y="33" width="2" height="2" fill="#6f80aa"/><rect x="602" y="33" width="2" height="2" fill="#6f80aa"/><rect x="594" y="35" width="2" height="2" fill="#6f80aa"/><rect x="602" y="35" width="2" height="2" fill="#6f80aa"/><rect x="594" y="37" width="8" height="2" fill="#6f80aa"/><rect x="606" y="25" width="10" height="2" fill="#6f80aa"/><rect x="606" y="27" width="2" height="2" fill="#6f80aa"/><rect x="606" y="29" width="2" height="2" fill="#6f80aa"/><rect x="606" y="31" width="8" height="2" fill="#6f80aa"/><rect x="606" y="33" width="2" height="2" fill="#6f80aa"/><rect x="606" y="35" width="2" height="2" fill="#6f80aa"/><rect x="606" y="37" width="10" height="2" fill="#6f80aa"/><rect x="618" y="25" width="8" height="2" fill="#6f80aa"/><rect x="618" y="27" width="2" height="2" fill="#6f80aa"/><rect x="626" y="27" width="2" height="2" fill="#6f80aa"/><rect x="618" y="29" width="2" height="2" fill="#6f80aa"/><rect x="626" y="29" width="2" height="2" fill="#6f80aa"/><rect x="618" y="31" width="8" height="2" fill="#6f80aa"/><rect x="618" y="33" width="2" height="2" fill="#6f80aa"/><rect x="622" y="33" width="2" height="2" fill="#6f80aa"/><rect x="618" y="35" width="2" height="2" fill="#6f80aa"/><rect x="624" y="35" width="2" height="2" fill="#6f80aa"/><rect x="618" y="37" width="2" height="2" fill="#6f80aa"/><rect x="626" y="37" width="2" height="2" fill="#6f80aa"/><rect x="630" y="25" width="10" height="2" fill="#6f80aa"/><rect x="630" y="27" width="2" height="2" fill="#6f80aa"/><rect x="630" y="29" width="2" height="2" fill="#6f80aa"/><rect x="630" y="31" width="8" height="2" fill="#6f80aa"/><rect x="630" y="33" width="2" height="2" fill="#6f80aa"/><rect x="630" y="35" width="2" height="2" fill="#6f80aa"/><rect x="630" y="37" width="10" height="2" fill="#6f80aa"/><rect x="642" y="25" width="8" height="2" fill="#6f80aa"/><rect x="642" y="27" width="2" height="2" fill="#6f80aa"/><rect x="650" y="27" width="2" height="2" fill="#6f80aa"/><rect x="642" y="29" width="2" height="2" fill="#6f80aa"/><rect x="650" y="29" width="2" height="2" fill="#6f80aa"/><rect x="642" y="31" width="8" height="2" fill="#6f80aa"/><rect x="642" y="33" width="2" height="2" fill="#6f80aa"/><rect x="646" y="33" width="2" height="2" fill="#6f80aa"/><rect x="642" y="35" width="2" height="2" fill="#6f80aa"/><rect x="648" y="35" width="2" height="2" fill="#6f80aa"/><rect x="642" y="37" width="2" height="2" fill="#6f80aa"/><rect x="650" y="37" width="2" height="2" fill="#6f80aa"/><rect x="352" y="14" width="4" height="4" fill="#ffd75e" fill-opacity="0.9"/><rect x="370" y="42" width="2" height="2" fill="#ffd75e" fill-opacity="0.6"/></svg>